<svg xmlns="http://www.w3.org/2000/svg" width="1200" height="900" viewBox="0 0 1200 900"><defs>
    <linearGradient id="g245489" x1="0" y1="0" x2="1" y2="1">
      <stop offset="0" stop-color="#c9c6bd"/>
      <stop offset="1" stop-color="#e9e7e2"/>
    </linearGradient>
    <filter id="b245489"><feGaussianBlur stdDeviation="55"/></filter>
    <filter id="grain245489">
      <feTurbulence type="fractalNoise" baseFrequency="0.9" numOctaves="2" result="n"/>
      <feColorMatrix in="n" type="matrix" values="0 0 0 0 0  0 0 0 0 0  0 0 0 0 0  0 0 0 0.04 0"/>
      <feComposite operator="over" in2="SourceGraphic"/>
    </filter>
  </defs><rect width="1200" height="900" fill="url(#g245489)"/><g filter="url(#b245489)"><path d="M 1007.4 579.4 Q 1007.4 579.4 958.0 696.2 Q 908.5 813.0 805.1 898.9 Q 701.6 984.8 553.1 977.3 Q 404.7 969.8 359.2 832.2 Q 313.7 694.5 318.1 581.0 Q 322.6 467.4 363.5 328.0 Q 404.5 188.6 543.8 233.5 Q 683.2 278.4 778.2 326.8 Q 873.3 375.3 940.4 477.3 Z" fill="#a09c92" opacity="0.9357398631051184"/><path d="M 194.7 345.1 Q 194.7 345.1 204.4 404.1 Q 214.1 463.1 156.2 475.8 Q 98.3 488.5 43.6 513.4 Q -11.0 538.2 -49.3 492.3 Q -87.7 446.4 -125.3 395.7 Q -162.9 345.1 -130.2 290.9 Q -97.6 236.6 -49.9 207.8 Q -2.3 178.9 53.1 174.7 Q 108.5 170.4 175.1 188.7 Q 241.7 207.1 218.2 276.1 Z" fill="#6c6961" opacity="0.7751417643390597"/><path d="M 580.6 646.5 Q 580.6 646.5 603.3 802.7 Q 625.9 959.0 469.7 987.1 Q 313.4 1015.3 185.8 958.5 Q 58.2 901.7 16.4 774.1 Q -25.5 646.5 47.9 550.3 Q 121.2 454.2 217.3 392.4 Q 313.4 330.6 407.1 394.9 Q 500.8 459.1 540.7 552.8 Z" fill="#3a3833" opacity="0.8542193076573312"/><path d="M 1157.1 788.7 Q 1157.1 788.7 1180.5 862.6 Q 1203.9 936.4 1122.8 943.6 Q 1041.6 950.7 994.9 1010.8 Q 948.1 1070.9 896.7 1018.8 Q 845.3 966.8 823.9 919.8 Q 802.4 872.8 739.0 830.8 Q 675.6 788.7 697.1 722.5 Q 718.7 656.3 780.0 630.0 Q 841.3 603.8 894.7 587.2 Q 948.1 570.6 1024.4 547.6 Q 1100.6 524.6 1122.8 599.8 Q 1144.9 675.1 1151.0 731.9 Z" fill="#c9c6bd" opacity="0.8397222841391341"/><path d="M 1055.0 73.0 Q 1055.0 73.0 1024.6 182.7 Q 994.1 292.4 884.4 301.2 Q 774.7 310.1 682.8 283.5 Q 590.9 256.8 548.1 164.9 Q 505.2 73.0 571.8 4.8 Q 638.4 -63.3 706.6 -106.1 Q 774.7 -148.8 877.6 -140.8 Q 980.5 -132.7 1017.8 -29.9 Z" fill="#3a3833" opacity="0.7741703305742704"/></g><circle cx="1001" cy="476" r="4.9" fill="#3a3833" opacity="0.85"/><circle cx="594" cy="696" r="66" fill="none" stroke="#3a3833" stroke-width="1.2" opacity="0.7"/><line x1="0" y1="377" x2="1200" y2="409" stroke="#3a3833" stroke-width="1" opacity="0.5"/><rect width="1200" height="900" filter="url(#grain245489)" fill="#e9e7e2" opacity="0.35"/></svg>